HIERARCHY
ROOT Hips
{
	OFFSET 0.00000 0.00000 0.00000
	CHANNELS 6 Xposition Yposition Zposition Zrotation Yrotation Xrotation 
	JOINT LHipJoint
	{
		OFFSET 0 0 0
		CHANNELS 3 Zrotation Yrotation Xrotation
		JOINT LeftUpLeg
		{
			OFFSET 1.39187 -1.60231 0.69152
			CHANNELS 3 Zrotation Yrotation Xrotation
			JOINT LeftLeg
			{
				OFFSET 2.43314 -6.68499 0.00000
				CHANNELS 3 Zrotation Yrotation Xrotation
				JOINT LeftFoot
				{
					OFFSET 2.32059 -6.37578 0.00000
					CHANNELS 3 Zrotation Yrotation Xrotation
					JOINT LeftToeBase
					{
						OFFSET 0.23021 -0.63250 1.71305
						CHANNELS 3 Zrotation Yrotation Xrotation
						End Site
						{
							OFFSET 0.00000 -0.00000 0.91647
						}
					}
				}
			}
		}
	}
	JOINT RHipJoint
	{
		OFFSET 0 0 0
		CHANNELS 3 Zrotation Yrotation Xrotation
		JOINT RightUpLeg
		{
			OFFSET -1.19407 -1.60231 0.69152
			CHANNELS 3 Zrotation Yrotation Xrotation
			JOINT RightLeg
			{
				OFFSET -2.44411 -6.71513 0.00000
				CHANNELS 3 Zrotation Yrotation Xrotation
				JOINT RightFoot
				{
					OFFSET -2.31924 -6.37207 0.00000
					CHANNELS 3 Zrotation Yrotation Xrotation
					JOINT RightToeBase
					{
						OFFSET -0.19473 -0.53502 1.87724
						CHANNELS 3 Zrotation Yrotation Xrotation
						End Site
						{
							OFFSET -0.00000 -0.00000 0.98293
						}
					}
				}
			}
		}
	}
	JOINT LowerBack
	{
		OFFSET 0 0 0
		CHANNELS 3 Zrotation Yrotation Xrotation
		JOINT Spine
		{
			OFFSET -0.01120 1.87307 0.09613
			CHANNELS 3 Zrotation Yrotation Xrotation
			JOINT Spine1
			{
				OFFSET 0.01099 1.87818 0.04834
				CHANNELS 3 Zrotation Yrotation Xrotation
				JOINT Neck
				{
					OFFSET 0 0 0
					CHANNELS 3 Zrotation Yrotation Xrotation
					JOINT Neck1
					{
						OFFSET 0.01702 1.40324 -0.12579
						CHANNELS 3 Zrotation Yrotation Xrotation
						JOINT Head
						{
							OFFSET -0.04239 1.38587 -0.01614
							CHANNELS 3 Zrotation Yrotation Xrotation
							End Site
							{
								OFFSET -0.02510 1.47031 -0.00154
							}
						}
					}
				}
				JOINT LeftShoulder
				{
					OFFSET 0 0 0
					CHANNELS 3 Zrotation Yrotation Xrotation
					JOINT LeftArm
					{
						OFFSET 2.95699 0.62343 0.11653
						CHANNELS 3 Zrotation Yrotation Xrotation
						JOINT LeftForeArm
						{
							OFFSET 4.68382 -0.00000 -0.00000
							CHANNELS 3 Zrotation Yrotation Xrotation
							JOINT LeftHand
							{
								OFFSET 2.98124 -0.00000 -0.00000
								CHANNELS 3 Zrotation Yrotation Xrotation
								JOINT LeftFingerBase
								{
									OFFSET 0 0 0
									CHANNELS 3 Zrotation Yrotation Xrotation
									JOINT LeftHandIndex1
									{
										OFFSET 0.70759 -0.00000 0.00000
										CHANNELS 3 Zrotation Yrotation Xrotation
										End Site
										{
											OFFSET 0.57048 -0.00000 0.00000
										}
									}
								}
								JOINT LThumb
								{
									OFFSET 0 0 0
									CHANNELS 3 Zrotation Yrotation Xrotation
									End Site
									{
										OFFSET 0.57919 -0.00000 0.57919
									}
								}
							}
						}
					}
				}
				JOINT RightShoulder
				{
					OFFSET 0 0 0
					CHANNELS 3 Zrotation Yrotation Xrotation
					JOINT RightArm
					{
						OFFSET -2.99027 0.88714 -0.02793
						CHANNELS 3 Zrotation Yrotation Xrotation
						JOINT RightForeArm
						{
							OFFSET -4.75876 -0.00000 -0.00000
							CHANNELS 3 Zrotation Yrotation Xrotation
							JOINT RightHand
							{
								OFFSET -2.93293 -0.00000 -0.00000
								CHANNELS 3 Zrotation Yrotation Xrotation
								JOINT RightFingerBase
								{
									OFFSET 0 0 0
									CHANNELS 3 Zrotation Yrotation Xrotation
									JOINT RightHandIndex1
									{
										OFFSET -0.83175 -0.00000 0.00000
										CHANNELS 3 Zrotation Yrotation Xrotation
										End Site
										{
											OFFSET -0.67058 -0.00000 0.00000
										}
									}
								}
								JOINT RThumb
								{
									OFFSET 0 0 0
									CHANNELS 3 Zrotation Yrotation Xrotation
									End Site
									{
										OFFSET -0.68082 -0.00000 0.68082
									}
								}
							}
						}
					}
				}
			}
		}
	}
}
MOTION
Frames: 10
Frame Time: .0083333
-8.2616 27.2159 0.5673 0 0 0 0 0 0 -21 0 0 0 0 0 0 0 0 0 0 0 0 0 0 21 0 0 0 0 0 0 0 0 0 0 0 0 0 0 0 0 0 0 0 0 0 0 -16 0 0 21 0 0 11 0 0 0 -8 0 0 0 0 0 0 0 0 0 0 0 0 0 0 0 0 0 0 0 0 8 0 0 0 0 0 0 0 0 0 0 0 0 0 0 0 0 0
-8.2616 27.2159 0.5673 42.3175 87.5599 59.7825 0.0000 0.0000 0.0000 -14.5662 -21.1984 -18.1942 1.7102 8.2345 23.4285 0.5036 10.9777 -21.5358 0.5323 4.6750 12.9840 0.0000 0.0000 0.0000 18.5043 17.0788 -20.8595 -1.8494 -8.5450 24.3820 0.5834 -15.7144 -14.6415 -0.1608 2.5836 -7.1216 -5.9281 -0.1443 -11.2151 0.2577 0.6656 -7.0552 3.6647 0.6708 -1.1706 -1.7629 0.6545 2.6396 3.2665 0.8143 8.1264 1.3429 0.4894 2.0808 -0.0000 -0.0000 0.0000 -94.0793 3.6893 -0.7464 11.3547 -18.8299 -1.8888 -0.0000 -0.0000 34.8763 9.6672 21.1167 3.5118 -7.1250 0.0000 -0.0000 -18.8526 50.4020 -2.5902 -0.0000 -0.0000 0.0000 92.5918 -7.4872 -11.6652 -8.1921 13.8638 -0.9977 0.0000 0.0000 37.7514 -18.1889 14.5115 -4.7066 7.1250 -0.0000 -0.0000 6.3274 -14.8043 4.5288
-8.2524 27.2130 0.5855 45.0444 87.6302 62.5486 0.0000 0.0000 0.0000 -14.5175 -21.1385 -18.3117 1.7243 8.2664 23.5263 0.4973 10.8832 -21.3771 0.4324 4.2200 11.6965 0.0000 0.0000 0.0000 18.5571 17.0118 -20.9520 -1.8721 -8.5945 24.5349 0.5722 -15.7140 -14.8509 -0.1462 2.4638 -6.7892 -5.9216 -0.1667 -11.3186 0.2215 0.6424 -6.9915 3.6230 0.6520 -1.0441 -1.6615 0.6149 2.4352 3.2183 0.7646 8.2801 1.3131 0.4692 2.1685 0.0000 0.0000 0.0000 -93.9858 3.6612 -1.0812 11.2693 -18.6998 -1.8613 -0.0000 -0.0000 35.1677 9.7913 21.0035 3.5395 -7.1250 0.0000 -0.0000 -18.6842 50.3136 -2.5240 0.0000 0.0000 0.0000 92.6757 -7.5073 -11.6181 -8.2969 14.0329 -1.0229 0.0000 0.0000 38.0448 -17.8931 13.9923 -4.4637 7.1250 -0.0000 -0.0000 6.5162 -15.3707 4.5861
-8.2392 27.2101 0.6062 49.8571 87.7359 67.2630 0.0000 0.0000 0.0000 -14.5291 -21.0555 -18.2761 1.7450 8.3135 23.6703 0.5043 10.7312 -21.2905 0.3468 3.7841 10.4700 0.0000 0.0000 0.0000 18.6704 16.8377 -20.8502 -1.8875 -8.6278 24.6378 0.5696 -15.7671 -15.0238 -0.1411 2.4212 -6.6711 -5.9657 -0.1938 -11.3273 0.1942 0.6092 -6.9042 3.6171 0.6291 -0.9443 -1.5761 0.5581 2.2343 3.1639 0.6933 8.5775 1.2855 0.4402 2.3038 0.0000 0.0000 0.0000 -93.9306 3.6369 -1.5671 11.1225 -18.4757 -1.8145 -0.0000 -0.0000 35.6832 9.9301 21.1614 3.6163 -7.1250 0.0000 -0.0000 -18.6254 50.4856 -2.5962 0.0000 0.0000 0.0000 92.7546 -7.5207 -11.4874 -8.4311 14.2492 -1.0557 0.0000 0.0000 38.3476 -17.1903 13.0302 -3.9900 7.1250 -0.0000 -0.0000 6.9825 -16.4277 4.7586
-8.2240 27.2076 0.6270 51.2276 87.7474 68.5048 0.0000 0.0000 0.0000 -14.5778 -20.8273 -18.2380 1.7717 8.3734 23.8540 0.4971 10.7026 -21.1902 0.2768 3.3838 9.3491 0.0000 0.0000 0.0000 18.7917 16.7500 -20.6853 -1.9025 -8.6600 24.7376 0.5590 -15.7643 -15.2085 -0.1366 2.3820 -6.5626 -5.9793 -0.1874 -11.3076 0.1720 0.6154 -6.8360 3.6027 0.6268 -0.8837 -1.6027 0.5790 2.0743 3.2221 0.7194 8.9152 1.3151 0.4599 2.4438 0.0000 -0.0000 0.0000 -93.9216 3.6655 -2.3418 10.9508 -18.2128 -1.7605 -0.0000 -0.0000 36.4460 10.0244 21.2310 3.6626 -7.1250 0.0000 -0.0000 -18.5684 50.5666 -2.6257 0.0000 -0.0000 0.0000 92.7641 -7.5074 -11.9922 -8.2166 13.9034 -1.0035 0.0000 0.0000 38.0965 -17.6367 14.0745 -4.4210 7.1250 -0.0000 -0.0000 6.6932 -15.3091 4.7213
-8.2160 27.2050 0.6445 49.1717 87.6381 66.6137 0.0000 0.0000 0.0000 -14.5509 -20.6260 -18.6349 1.8065 8.4508 24.0920 0.4630 10.8473 -20.9999 0.2073 2.9315 8.0880 0.0000 0.0000 0.0000 18.7469 16.8647 -20.8724 -1.9119 -8.6801 24.7998 0.5385 -15.6277 -15.2649 -0.1333 2.3530 -6.4824 -5.8762 -0.1458 -11.4550 0.0777 0.6752 -6.8790 3.4536 0.6541 -0.8514 -1.8517 0.6736 2.2999 3.5552 0.8259 8.7994 1.4641 0.5117 2.3626 0.0000 -0.0000 0.0000 -93.7976 3.7935 -2.9577 10.8779 -18.1008 -1.7378 -0.0000 -0.0000 36.8827 9.8471 21.2830 3.6051 -7.1250 0.0000 -0.0000 -18.7595 50.5881 -2.6646 0.0000 -0.0000 0.0000 92.9062 -7.5496 -11.9614 -8.1848 13.8520 -0.9959 0.0000 0.0000 37.8301 -18.0259 14.0618 -4.5208 7.1250 -0.0000 -0.0000 6.4270 -15.2863 4.5343
-8.2090 27.1996 0.6628 49.4065 87.7242 66.9019 0.0000 0.0000 0.0000 -14.4051 -20.4481 -18.9291 1.8466 8.5390 24.3635 0.4625 10.7724 -20.9171 0.1484 2.4825 6.8411 0.0000 0.0000 0.0000 18.8761 16.9014 -20.9349 -1.9196 -8.6966 24.8507 0.5402 -15.6358 -15.2516 -0.1374 2.3887 -6.5811 -5.6799 -0.1475 -11.5032 0.0244 0.6577 -6.8488 3.2867 0.6353 -0.7864 -1.9755 0.6944 2.4439 3.7225 0.8426 8.6035 1.5360 0.5168 2.2720 0.0000 0.0000 0.0000 -93.6483 3.7990 -3.5166 10.8128 -18.0007 -1.7176 -0.0000 -0.0000 37.0926 9.6455 21.5007 3.5644 -7.1250 0.0000 -0.0000 -19.0509 50.7629 -2.7925 0.0000 0.0000 0.0000 93.0653 -7.6236 -11.6121 -8.2556 13.9663 -1.0129 0.0000 0.0000 37.4551 -18.3174 14.0724 -4.6021 7.1250 -0.0000 -0.0000 6.2282 -15.2481 4.3974
-8.1981 27.1942 0.6816 49.7648 87.9889 67.2056 0.0000 0.0000 0.0000 -14.1097 -20.3413 -19.0340 1.8896 8.6323 24.6517 0.4821 10.5887 -20.9244 0.1046 2.0854 5.7419 0.0000 0.0000 0.0000 19.2252 16.8238 -20.8713 -1.9289 -8.7163 24.9118 0.5497 -15.7127 -15.2571 -0.1418 2.4266 -6.6862 -5.4199 -0.1555 -11.5261 0.0449 0.6206 -6.7627 3.1592 0.6021 -0.6745 -1.7879 0.6036 2.2138 3.5040 0.7343 8.7651 1.4356 0.4662 2.3693 0.0000 -0.0000 0.0000 -93.5518 3.7232 -4.1136 10.6902 -17.8118 -1.6799 -0.0000 -0.0000 37.2385 9.7459 21.4750 3.5980 -7.1250 0.0000 -0.0000 -18.9441 50.7546 -2.7719 0.0000 -0.0000 0.0000 93.1652 -7.8020 -10.8334 -8.4219 14.2344 -1.0534 0.0000 0.0000 36.8349 -18.2417 14.0535 -4.5758 7.1250 -0.0000 -0.0000 6.2795 -15.2749 4.4304
-8.1824 27.1887 0.7017 55.9182 88.1271 73.1802 0.0000 0.0000 0.0000 -14.0773 -20.4163 -18.9310 1.9390 8.7379 24.9790 0.4820 10.5679 -20.9018 0.0618 1.6046 4.4142 0.0000 0.0000 0.0000 19.4147 16.5912 -20.6649 -1.9393 -8.7385 24.9806 0.5552 -15.8191 -15.4009 -0.1350 2.3683 -6.5246 -5.4137 -0.1930 -11.4601 0.0478 0.5625 -6.6692 3.1529 0.5663 -0.6063 -1.5253 0.5952 2.0196 3.2095 0.7429 9.0443 1.3001 0.4762 2.4959 0.0000 -0.0000 0.0000 -93.5298 3.8251 -4.4909 10.6148 -17.6955 -1.6569 -0.0000 -0.0000 37.3592 9.8453 21.5377 3.6454 -7.1250 0.0000 -0.0000 -18.8795 50.8299 -2.7976 0.0000 -0.0000 0.0000 93.2153 -7.9806 -10.2871 -8.6056 14.5296 -1.0991 0.0000 0.0000 36.5694 -17.7567 13.3762 -4.2369 7.1250 -0.0000 -0.0000 6.5975 -16.0216 4.5510
-8.1672 27.1823 0.7212 66.9664 88.1169 83.9406 0.0000 0.0000 0.0000 -14.2797 -20.4683 -18.7429 1.9913 8.8480 25.3209 0.4751 10.5484 -20.8132 0.0269 1.0587 2.9103 0.0000 0.0000 0.0000 19.4585 16.2960 -20.3357 -1.9492 -8.7595 25.0460 0.5644 -15.9756 -15.5921 -0.1307 2.3300 -6.4186 -5.5651 -0.2551 -11.2396 0.0404 0.4757 -6.5810 3.2196 0.5222 -0.6275 -1.7481 0.5671 2.0996 3.2817 0.7038 9.2397 1.3637 0.4549 2.5482 0.0000 -0.0000 0.0000 -93.6130 4.0127 -5.1351 10.5559 -17.6044 -1.6391 -0.0000 -0.0000 37.9318 9.7657 21.6407 3.6318 -7.1250 0.0000 -0.0000 -19.0032 50.9148 -2.8578 0.0000 -0.0000 0.0000 93.2083 -8.0468 -10.4959 -8.6516 14.6035 -1.1106 0.0000 0.0000 36.6897 -17.2534 12.8415 -3.9487 7.1250 -0.0000 -0.0000 6.9368 -16.6176 4.6981
